<?xml version="1.0" encoding="utf-8"?>
<!-- Generator: Adobe Illustrator 16.0.0, SVG Export Plug-In . SVG Version: 6.00 Build 0)  -->
<!DOCTYPE svg PUBLIC "-//W3C//DTD SVG 1.1//EN" "http://www.w3.org/Graphics/SVG/1.1/DTD/svg11.dtd">
<svg version="1.1" id="Layer_1" xmlns="http://www.w3.org/2000/svg" xmlns:xlink="http://www.w3.org/1999/xlink" x="0px" y="0px"
	 width="50px" height="50px" viewBox="0 0 50 50" style="enable-background:new 0 0 50 50;" xml:space="preserve">
<style type="text/css">
<![CDATA[
	.st0{fill:#202020;}
]]>
</style>
<g>
	<g>
		<path class="st0" d="M43.9,25.9c-0.4-1.2-1.2-4-3.3-4c-2.1,0-3,2.8-3.3,4.1c-0.6,2.2-1.2,2.5-1.4,2.5c-0.4-0.1-1-1.4-1.4-2.7
			l0-0.1c0-0.1-0.1-0.2-0.1-0.4c-0.3-1-0.9-2.4-2-3.1c-1.1-0.7-2.4-0.3-3.4,1.1c-0.5,0.7-0.8,1.5-1,2.2c-0.2,0.7-0.2,1.3-0.2,2
			c0,0.2,0,0.5,0,0.7c-0.1,0.9-0.2,2.1-0.6,3.2c-0.2,0.6-0.6,0.9-0.6,1c0,0,0,0-0.1-0.1c-0.4-0.5-0.6-1.2-0.8-1.9
			c-0.3-1.1-0.4-2.4-0.4-4c0-2.1-0.1-3.8-0.4-5.3c-0.2-1.1-0.4-2.3-1-3.3c-0.8-1.4-1.7-1.4-2.2-1.4c-1.2,0.2-1.7,1.4-1.9,1.9
			c-0.5,1.2-0.8,2.6-0.9,3.7c-0.1,0.7-0.1,1.4-0.1,2c0,1.1-0.1,2.2-0.4,3.1c-0.6,1.6-1,1.6-1,1.6c-0.4-0.2-1-1.5-1.4-2.8l-0.1-0.3
			c-0.4-1.2-1.2-3.6-3.2-3.6c-2.1,0-2.9,2.7-3.3,4l1,0.3l-1-0.2c-0.7,2.3-1.2,2.6-1.4,2.6c-0.2,0-0.7-0.2-1.4-2.6
			c-0.2-0.5-0.7-0.8-1.2-0.7c-0.5,0.2-0.8,0.7-0.7,1.3c0.4,1.2,1.2,4,3.3,4c2.1,0,2.9-2.7,3.3-4l0-0.1c0.7-2.3,1.2-2.6,1.4-2.6
			c0.2,0,0.6,0.3,1.3,2.3l0.1,0.3c0.3,1.2,1.2,3.9,2.9,4.2c2,0.4,3-2.1,3.3-2.9c0.5-1.2,0.5-2.6,0.6-3.8c0-0.6,0-1.2,0.1-1.8
			c0.1-1,0.3-2.2,0.8-3.2c0.2-0.4,0.3-0.6,0.4-0.6c0.1,0.1,0.1,0.2,0.2,0.3c0.4,0.8,0.6,1.7,0.8,2.7c0.2,1.4,0.4,3,0.4,5
			c0,1.8,0.1,3.2,0.5,4.5c0.2,0.9,0.5,2,1.3,2.8c0.6,0.6,1.2,0.8,1.6,0.8c0.1,0,0.2,0,0.3,0c1.3-0.2,2-1.7,2.2-2.2
			c0.5-1.3,0.7-2.7,0.8-3.8c0-0.3,0-0.6,0-0.9c0-0.5,0-1,0.1-1.4c0.2-0.5,0.4-1.2,0.8-1.7c0.3-0.4,0.5-0.5,0.6-0.5
			c0.5,0.4,0.9,1.4,1.2,2.1c0.1,0.1,0.1,0.3,0.1,0.4c0.3,1,1.3,4.1,3.3,4.1c2.2,0,3-2.8,3.3-4c0.7-2.3,1.2-2.6,1.4-2.6
			s0.7,0.3,1.4,2.6l0,0c0.2,0.5,0.7,0.8,1.2,0.7C43.8,27,44.1,26.4,43.9,25.9z M25,0C11.2,0,0,11.2,0,25c0,13.8,11.2,25,25,25
			s25-11.2,25-25C50,11.2,38.8,0,25,0z M25,48C12.3,48,2,37.7,2,25C2,12.3,12.3,2,25,2c12.7,0,23,10.3,23,23C48,37.7,37.7,48,25,48z
			"/>
	</g>
</g>
</svg>
